<?xml version="1.0" standalone="no"?><!DOCTYPE svg PUBLIC "-//W3C//DTD SVG 1.1//EN" "http://www.w3.org/Graphics/SVG/1.1/DTD/svg11.dtd"><svg t="1677488317260" class="icon" viewBox="0 0 1024 1024" version="1.1" xmlns="http://www.w3.org/2000/svg" p-id="15429" data-spm-anchor-id="a313x.7781069.0.i16" xmlns:xlink="http://www.w3.org/1999/xlink" width="200" height="200"><path d="M428.8512 615.168H56.3712a25.6 25.6 0 0 1-18.7392-43.008L552.96 13.4144a25.6 25.6 0 0 1 44.032 21.76l-15.8208 336.64h312.9856a25.6 25.6 0 0 1 19.2 42.496L390.4512 1008.0256c-17.4592 19.8656-49.92 3.328-44.1856-22.528l82.5856-370.3296z m-313.7536-51.2H460.8a25.6 25.6 0 0 1 24.9856 31.1808l-67.84 304.1792 419.5328-476.3136h-286.72a25.6 25.6 0 0 1-25.1904-30.0032l6.2976-281.6-416.768 452.5568z" fill="#e6e6e6" p-id="15430" data-spm-anchor-id="a313x.7781069.0.i14" class="selected"></path><path d="M463.4112 286.0032a25.6 25.6 0 1 1 37.8368 34.56L355.7888 479.744a25.6 25.6 0 1 1-37.8368-34.56l145.4592-159.232z" fill="#e6e6e6" p-id="15431" data-spm-anchor-id="a313x.7781069.0.i15" class="selected"></path></svg>